<svg width="65" height="66" fill="none" xmlns="http://www.w3.org/2000/svg"><circle cx="32.5" cy="32.734" r="32.5" fill="#0156FF"/><g clip-path="url(#clip0_1197_312)"><path d="M45.205 21.229a.787.787 0 00-1.484.518c1.208 3.471-1.19 6.064-3.017 7.452l-.738-1.058c-.249-.355-.804-.65-1.235-.655l-4.145.018a2.81 2.81 0 00-1.426.44l-12.212 8.562a1.313 1.313 0 00-.321 1.826l5.55 7.94c.416.592 1.08.52 1.673.107l12.212-8.565c.35-.248.757-.784.9-1.193l1.297-4.089c.143-.408.056-1.03-.193-1.385l-.45-.645c2.455-1.881 5.003-5.205 3.589-9.273zm-5.683 12.165a2.09 2.09 0 01-2.912-.515 2.098 2.098 0 01.514-2.92 2.09 2.09 0 012.428.023 8.017 8.017 0 01-.642.357.788.788 0 00.337 1.5.788.788 0 00.334-.078c.252-.12.522-.26.805-.429a2.1 2.1 0 01-.864 2.062z" fill="#fff"/></g><defs><clipPath id="clip0_1197_312"><path fill="#fff" transform="translate(20 20.702)" d="M0 0h26v26H0z"/></clipPath></defs></svg>