<svg width="25" height="25" fill="none" xmlns="http://www.w3.org/2000/svg"><path d="M14.583 20.833a2.084 2.084 0 100-4.167 2.084 2.084 0 000 4.167zm-7.291 0a2.083 2.083 0 100-4.166 2.083 2.083 0 000 4.166zM20.873 6.17a1.002 1.002 0 000-2.003h-1.199c-.94 0-1.752.652-1.956 1.568l-1.305 5.878a2.004 2.004 0 01-1.957 1.568H6.631L5.13 7.171h9.735a1.002 1.002 0 000-2.002H5.129a2.003 2.003 0 00-1.943 2.49l1.502 6.008a2.003 2.003 0 001.943 1.517h7.825a4.006 4.006 0 003.912-3.137l1.306-5.877h1.199z" fill="#000"/></svg>