<?xml version="1.0" encoding="utf-8"?><svg viewBox="0 0 77 31" xmlns="http://www.w3.org/2000/svg" xmlns:xlink="http://www.w3.org/1999/xlink"><style>:root>svg{display:none}:root>svg:target{display:block}</style><svg fill="none" viewBox="0 0 6 5" id="arrow-down" xmlns="http://www.w3.org/2000/svg"><path d="M5 1.77l-2 2-2-2" stroke="inherit" stroke-width="1.6" stroke-linecap="round"/></svg><svg fill="none" viewBox="0 0 19 17" id="cart" xmlns="http://www.w3.org/2000/svg"><path d="M11.583 16.833a2.084 2.084 0 100-4.167 2.084 2.084 0 000 4.167zm-7.291 0a2.083 2.083 0 100-4.166 2.083 2.083 0 000 4.166zM17.873 2.17a1.002 1.002 0 000-2.003h-1.199c-.94 0-1.752.652-1.956 1.568l-1.305 5.878a2.004 2.004 0 01-1.957 1.568H3.631L2.13 3.171h9.735a1.002 1.002 0 000-2.002H2.129a2.003 2.003 0 00-1.944 2.49l1.503 6.008a2.003 2.003 0 001.943 1.517h7.825a4.006 4.006 0 003.912-3.137l1.306-5.877h1.199z" fill="#000"/></svg><svg fill="none" viewBox="0 0 19 19" id="cross" xmlns="http://www.w3.org/2000/svg"><path d="M3.846 3.846l11.308 11.308M15.154 3.846L3.847 15.154" stroke="#0156FF" stroke-width="2.4" stroke-linecap="round"/></svg><svg fill="none" viewBox="0 0 16 16" id="facebook" xmlns="http://www.w3.org/2000/svg"><path d="M15.105.277H.895a.617.617 0 00-.619.617v14.211c0 .342.276.618.618.618h14.211a.617.617 0 00.618-.618V.895a.617.617 0 00-.618-.618zm-1.784 4.508h-1.234c-.967 0-1.154.46-1.154 1.135v1.49h2.309l-.301 2.33h-2.008v5.983H8.525V9.742H6.51V7.409h2.014V5.691c0-1.995 1.218-3.082 2.998-3.082.854 0 1.586.064 1.8.093v2.083h-.002z" fill="#fff"/></svg><svg fill="none" viewBox="0 0 30 30" id="heart" xmlns="http://www.w3.org/2000/svg"><circle cx="15" cy="15" r="14" stroke="#A2A6B0" stroke-width="2"/><path d="M14.685 11.825l.71.717.71-.717c.674-.679 1.709-1.45 2.787-1.45 1.069 0 1.91.356 2.48.903.565.544.922 1.336.922 2.332 0 1.07-.43 1.982-1.165 2.866-.755.907-1.773 1.715-2.878 2.588l-.026.02c-.937.74-1.98 1.563-2.83 2.483-.84-.912-1.873-1.728-2.802-2.462l-.05-.04h-.001c-1.106-.874-2.123-1.683-2.878-2.59C8.93 15.593 8.5 14.68 8.5 13.61c0-.995.356-1.786.922-2.331.57-.547 1.411-.903 2.48-.903 1.077 0 2.11.77 2.783 1.45z" stroke="#A2A6B0" stroke-width="2"/></svg><svg fill="none" viewBox="0 0 16 16" id="instagram" xmlns="http://www.w3.org/2000/svg"><path d="M8 5.396A2.609 2.609 0 005.396 8 2.609 2.609 0 008 10.604 2.609 2.609 0 0010.603 8 2.609 2.609 0 008 5.396zM15.808 8c0-1.078.01-2.147-.05-3.223-.061-1.25-.346-2.36-1.26-3.273-.916-.916-2.024-1.2-3.274-1.26-1.078-.06-2.146-.05-3.222-.05-1.079 0-2.147-.01-3.223.05-1.25.06-2.36.346-3.274 1.26C.59 2.42.306 3.527.245 4.777.186 5.855.196 6.924.196 8s-.01 2.146.05 3.223c.061 1.25.346 2.359 1.26 3.273.916.916 2.024 1.2 3.274 1.26 1.078.06 2.146.05 3.223.05 1.078 0 2.146.01 3.222-.05 1.25-.06 2.36-.346 3.274-1.26.916-.916 1.199-2.023 1.26-3.273.062-1.077.05-2.145.05-3.223zM8 12.006A4 4 0 013.994 8 4 4 0 018 3.994 4 4 0 0112.005 8 4 4 0 018 12.006zm4.17-7.24a.934.934 0 110-1.872.934.934 0 110 1.872z" fill="#fff"/></svg><svg fill="none" viewBox="0 0 30 31" id="mail" xmlns="http://www.w3.org/2000/svg"><circle cx="15" cy="15.954" r="14" stroke="#A2A6B0" stroke-width="2"/><path d="M21.667 10.788H8.333a.833.833 0 00-.833.833v10c0 .46.373.833.833.833h13.334c.46 0 .833-.373.833-.833v-10a.833.833 0 00-.833-.833z" stroke="#A2A6B0" stroke-width="1.7" stroke-linecap="round"/><path d="M7.5 12.038L15 16.62l7.5-4.583" stroke="#A2A6B0" stroke-width="1.7" stroke-linecap="round"/></svg><svg fill="none" viewBox="0 0 17 16" id="search" xmlns="http://www.w3.org/2000/svg"><path d="M2.95 1.991a6.433 6.433 0 008.425 9.686l3.331 3.332h0a.892.892 0 101.262-1.262h0l-3.332-3.331a6.434 6.434 0 00-9.685-8.425zm0 0l.071.071-.07-.07zm7.839 1.263a4.65 4.65 0 11-6.523 6.63 4.65 4.65 0 016.523-6.63z" fill="#000" stroke="#000" stroke-width=".2"/></svg><svg fill="none" viewBox="0 0 8 12" id="slider-left" xmlns="http://www.w3.org/2000/svg"><path d="M7 1L2 6l5 5" stroke="#fff" stroke-width="2" stroke-linecap="round"/></svg><svg fill="none" viewBox="0 0 8 12" id="slider-right" xmlns="http://www.w3.org/2000/svg"><path d="M1 11l5-5-5-5" stroke="#fff" stroke-width="2" stroke-linecap="round"/></svg><svg fill="none" viewBox="0 0 31 31" id="statistik" xmlns="http://www.w3.org/2000/svg"><circle cx="15.041" cy="15.477" r="14" stroke="#A2A6B0" stroke-width="2"/><path d="M10.42 21.565v-4.486M15 21.565V8.169M19.661 21.565v-8.842" stroke="#A2A6B0" stroke-width="2.2" stroke-linecap="round"/></svg><svg fill="none" viewBox="0 0 77 27" id="zip" xmlns="http://www.w3.org/2000/svg"><g clip-path="url(#lclip0_0_189)"><path d="M27.284 10.111l-6.163 5.412H5.857a5.915 5.915 0 00-3.867 1.424l7.699-6.761.118-.103 9.646-8.478A5.963 5.963 0 0125.18.42c1.99.632 3.483 2.252 3.916 4.249a5.633 5.633 0 01-1.812 5.435v.007z" fill="#F15B41"/><path d="M5.857 11.58c3.234 0 5.856-2.56 5.856-5.717 0-3.157-2.622-5.717-5.856-5.717C2.622.146 0 2.706 0 5.863 0 9.02 2.622 11.58 5.857 11.58z" fill="#F99D1D"/><path d="M5.857 15.523a5.915 5.915 0 00-3.867 1.424l-.05.044a5.62 5.62 0 00-.437 8.072c2.162 2.348 5.865 2.539 8.27.428l11.35-9.967-15.266-.001z" fill="#272560"/><path d="M21.113 15.527L9.762 25.494a5.914 5.914 0 01-3.916 1.46H23.36c3.378-.053 5.763-2.534 5.763-5.717 0-3.182-2.565-5.666-5.763-5.716l-2.246.006z" fill="#00B6BD"/><path d="M37.612 22.174a1.72 1.72 0 01-1.294-.515 1.78 1.78 0 01-.487-1.28 2.722 2.722 0 01.35-1.362 5.26 5.26 0 01.75-1.034l7.247-7.972h-6.316c-.613 0-1.05-.204-1.29-.61a2.545 2.545 0 01-.338-1.335c-.017-.45.116-.893.38-1.263.26-.35.685-.549 1.129-.528h11.16c.471-.021.932.146 1.273.464.316.308.477.746.477 1.3.013.432-.08.861-.27 1.251-.183.34-.413.654-.682.934l-7.547 8.212h7.15c.43-.01.84.18 1.103.511.28.371.421.824.4 1.283.02.479-.097.954-.34 1.37-.245.382-.678.576-1.287.576l-11.568-.002zM55.142 22.384c-1.986 0-2.4-.992-2.4-1.824V8.417c0-.635.197-1.148.587-1.526.39-.378 1.01-.57 1.848-.57.705 0 1.263.155 1.66.465.398.31.618.808.618 1.45v12.26c0 .667-.216 1.157-.642 1.46-.426.301-.973.428-1.67.428zm0-17.367c-.774 0-1.408-.22-1.888-.655-.48-.435-.73-1.035-.73-1.772A2.303 2.303 0 0153.25.85c.475-.454 1.113-.686 1.891-.686a3.006 3.006 0 011.778.584c.558.4.841 1.022.841 1.848 0 .737-.246 1.334-.73 1.773-.485.44-1.12.652-1.889.652v-.004zM62.633 27.037c-1.857 0-2.25-1.008-2.25-1.855V8.006a1.927 1.927 0 01.588-1.44c.389-.377 1.011-.57 1.848-.57.52-.005 1.035.111 1.5.339.493.246.75.73.75 1.423a5.59 5.59 0 011.372-1.159 5.819 5.819 0 013.1-.84c1.05-.02 2.09.198 3.037.638a6.16 6.16 0 012.203 1.775 7.71 7.71 0 011.305 2.677c.292 1.09.435 2.214.426 3.34a11.289 11.289 0 01-.489 3.392 7.905 7.905 0 01-1.43 2.692 6.576 6.576 0 01-2.32 1.773 7.383 7.383 0 01-3.126.638 6.571 6.571 0 01-2.13-.292 5.945 5.945 0 01-1.396-.673 3.831 3.831 0 01-.645-.536v3.912c0 .68-.19 1.182-.567 1.491-.377.31-.955.451-1.776.451zM68.342 9.65a3.048 3.048 0 00-1.469.337c-.425.235-.789.56-1.065.953-.31.444-.535.939-.667 1.46a7.235 7.235 0 00-.227 1.852c0 1.421.3 2.561.9 3.389.6.827 1.415 1.214 2.534 1.214 1.119 0 1.933-.414 2.499-1.268.565-.854.867-1.99.867-3.335a7.24 7.24 0 00-.234-1.846 4.671 4.671 0 00-.654-1.46 3.032 3.032 0 00-1.05-.95 2.977 2.977 0 00-1.434-.346z" fill="#272560"/></g><defs><clipPath id="lclip0_0_189"><path fill="#fff" d="M0 0h77v27H0z"/></clipPath></defs></svg></svg>