<?xml version="1.0" encoding="utf-8"?><svg viewBox="0 0 19 19" xmlns="http://www.w3.org/2000/svg" xmlns:xlink="http://www.w3.org/1999/xlink"><style>:root>svg{display:none}:root>svg:target{display:block}</style><svg fill="none" viewBox="0 0 6 5" id="arrow-down" xmlns="http://www.w3.org/2000/svg"><path d="M5 1.77l-2 2-2-2" stroke="#fff" stroke-width="1.6" stroke-linecap="round"/></svg><svg fill="none" viewBox="0 0 19 17" id="cart" xmlns="http://www.w3.org/2000/svg"><path d="M11.583 16.833a2.084 2.084 0 100-4.167 2.084 2.084 0 000 4.167zm-7.291 0a2.083 2.083 0 100-4.166 2.083 2.083 0 000 4.166zM17.873 2.17a1.002 1.002 0 000-2.003h-1.199c-.94 0-1.752.652-1.956 1.568l-1.305 5.878a2.004 2.004 0 01-1.957 1.568H3.631L2.13 3.171h9.735a1.002 1.002 0 000-2.002H2.129a2.003 2.003 0 00-1.944 2.49l1.503 6.008a2.003 2.003 0 001.943 1.517h7.825a4.006 4.006 0 003.912-3.137l1.306-5.877h1.199z" fill="#000"/></svg><svg fill="none" viewBox="0 0 19 19" id="cross" xmlns="http://www.w3.org/2000/svg"><path d="M3.846 3.846l11.308 11.308M15.154 3.846L3.847 15.154" stroke="#0156FF" stroke-width="2.4" stroke-linecap="round"/></svg><svg fill="none" viewBox="0 0 16 16" id="facebook" xmlns="http://www.w3.org/2000/svg"><path d="M15.105.277H.895a.617.617 0 00-.619.617v14.211c0 .342.276.618.618.618h14.211a.617.617 0 00.618-.618V.895a.617.617 0 00-.618-.618zm-1.784 4.508h-1.234c-.967 0-1.154.46-1.154 1.135v1.49h2.309l-.301 2.33h-2.008v5.983H8.525V9.742H6.51V7.409h2.014V5.691c0-1.995 1.218-3.082 2.998-3.082.854 0 1.586.064 1.8.093v2.083h-.002z" fill="#fff"/></svg><svg fill="none" viewBox="0 0 16 16" id="instagram" xmlns="http://www.w3.org/2000/svg"><path d="M8 5.396A2.609 2.609 0 005.396 8 2.609 2.609 0 008 10.604 2.609 2.609 0 0010.603 8 2.609 2.609 0 008 5.396zM15.808 8c0-1.078.01-2.147-.05-3.223-.061-1.25-.346-2.36-1.26-3.273-.916-.916-2.024-1.2-3.274-1.26-1.078-.06-2.146-.05-3.222-.05-1.079 0-2.147-.01-3.223.05-1.25.06-2.36.346-3.274 1.26C.59 2.42.306 3.527.245 4.777.186 5.855.196 6.924.196 8s-.01 2.146.05 3.223c.061 1.25.346 2.359 1.26 3.273.916.916 2.024 1.2 3.274 1.26 1.078.06 2.146.05 3.223.05 1.078 0 2.146.01 3.222-.05 1.25-.06 2.36-.346 3.274-1.26.916-.916 1.199-2.023 1.26-3.273.062-1.077.05-2.145.05-3.223zM8 12.006A4 4 0 013.994 8 4 4 0 018 3.994 4 4 0 0112.005 8 4 4 0 018 12.006zm4.17-7.24a.934.934 0 110-1.872.934.934 0 110 1.872z" fill="#fff"/></svg><svg fill="none" viewBox="0 0 17 16" id="search" xmlns="http://www.w3.org/2000/svg"><path d="M2.95 1.991a6.433 6.433 0 008.425 9.686l3.331 3.332h0a.892.892 0 101.262-1.262h0l-3.332-3.331a6.434 6.434 0 00-9.685-8.425zm0 0l.071.071-.07-.07zm7.839 1.263a4.65 4.65 0 11-6.523 6.63 4.65 4.65 0 016.523-6.63z" fill="#000" stroke="#000" stroke-width=".2"/></svg><svg fill="none" viewBox="0 0 8 12" id="slider-left" xmlns="http://www.w3.org/2000/svg"><path d="M7 1L2 6l5 5" stroke="#fff" stroke-width="2" stroke-linecap="round"/></svg><svg fill="none" viewBox="0 0 8 12" id="slider-right" xmlns="http://www.w3.org/2000/svg"><path d="M1 11l5-5-5-5" stroke="#fff" stroke-width="2" stroke-linecap="round"/></svg></svg>