<svg width="20" height="20" fill="none" xmlns="http://www.w3.org/2000/svg"><path d="M10 7.397A2.609 2.609 0 007.396 10 2.609 2.609 0 0010 12.604 2.609 2.609 0 0012.603 10 2.609 2.609 0 0010 7.397zM17.808 10c0-1.078.01-2.146-.05-3.223-.061-1.25-.346-2.359-1.26-3.273-.916-.916-2.024-1.2-3.274-1.26-1.078-.06-2.146-.05-3.222-.05-1.079 0-2.147-.01-3.223.05-1.25.06-2.36.346-3.274 1.26-.916.916-1.199 2.023-1.26 3.273-.06 1.079-.05 2.147-.05 3.223s-.01 2.146.05 3.223c.061 1.25.346 2.36 1.26 3.273.916.916 2.024 1.2 3.274 1.26 1.078.06 2.146.05 3.223.05 1.078 0 2.146.01 3.222-.05 1.25-.06 2.36-.346 3.274-1.26.916-.916 1.199-2.023 1.26-3.273.062-1.077.05-2.145.05-3.223zM10 14.006A4 4 0 015.994 10 4 4 0 0110 5.994 4 4 0 0114.005 10 4 4 0 0110 14.006zm4.17-7.24a.934.934 0 110-1.871.934.934 0 110 1.87z" fill="#fff"/></svg>