<svg width="30" height="30" fill="none" xmlns="http://www.w3.org/2000/svg"><circle cx="15" cy="15" r="14" stroke="#A2A6B0" stroke-width="2"/><path d="M14.685 11.825l.71.717.71-.717c.674-.679 1.709-1.45 2.787-1.45 1.069 0 1.91.356 2.48.903.565.544.922 1.336.922 2.332 0 1.07-.43 1.982-1.165 2.866-.755.907-1.773 1.715-2.878 2.588l-.026.02c-.937.74-1.98 1.563-2.83 2.483-.84-.912-1.873-1.728-2.802-2.462l-.05-.04h-.001c-1.106-.874-2.123-1.683-2.878-2.59C8.93 15.593 8.5 14.68 8.5 13.61c0-.995.356-1.786.922-2.331.57-.547 1.411-.903 2.48-.903 1.077 0 2.11.77 2.783 1.45z" stroke="#A2A6B0" stroke-width="2"/></svg>