<svg width="65" height="66" fill="none" xmlns="http://www.w3.org/2000/svg"><circle cx="32.5" cy="32.734" r="32.5" fill="#0156FF"/><g clip-path="url(#clip0_1197_7496)"><path d="M35.82 44.882L33 47.702l-2.82-2.82c-5.543-1.28-9.68-6.25-9.68-12.18 0-6.9 5.6-12.5 12.5-12.5s12.5 5.6 12.5 12.5c0 5.93-4.138 10.9-9.68 12.18zm-10.291-7.91c1.835 2.738 4.59 4.48 7.671 4.48 3.08 0 5.836-1.74 7.67-4.48a11.21 11.21 0 00-7.67-3.02 11.21 11.21 0 00-7.671 3.02zM33 31.452a3.75 3.75 0 100-7.5 3.75 3.75 0 000 7.5z" fill="#fff"/></g><defs><clipPath id="clip0_1197_7496"><path fill="#fff" transform="translate(18 17.702)" d="M0 0h30v30H0z"/></clipPath></defs></svg>