<svg width="77" height="27" fill="none" xmlns="http://www.w3.org/2000/svg"><g clip-path="url(#clip0_2_241)"><path d="M27.285 10.111l-6.164 5.412H5.857a5.915 5.915 0 00-3.867 1.424l7.699-6.761.118-.102 9.646-8.479A5.963 5.963 0 0125.18.42c1.989.632 3.482 2.252 3.916 4.25a5.634 5.634 0 01-1.812 5.434v.007z" fill="#F15B41"/><path d="M5.857 11.58c3.234 0 5.856-2.56 5.856-5.717 0-3.157-2.622-5.717-5.856-5.717C2.622.146 0 2.706 0 5.863 0 9.02 2.622 11.58 5.857 11.58z" fill="#F99D1D"/><path d="M5.857 15.523a5.915 5.915 0 00-3.867 1.424l-.049.044a5.62 5.62 0 00-.438 8.072c2.163 2.348 5.865 2.539 8.27.428l11.35-9.967-15.266-.001z" fill="#272560"/><path d="M21.113 15.527L9.762 25.494a5.914 5.914 0 01-3.916 1.46h17.512c3.378-.053 5.764-2.534 5.764-5.717 0-3.182-2.566-5.666-5.764-5.716l-2.245.006z" fill="#00B6BD"/><path d="M37.612 22.174c-.488.018-.96-.17-1.294-.515a1.78 1.78 0 01-.488-1.28 2.722 2.722 0 01.351-1.362 5.26 5.26 0 01.75-1.034l7.246-7.972h-6.316c-.612 0-1.05-.204-1.29-.61a2.545 2.545 0 01-.337-1.335c-.017-.45.116-.893.379-1.263.26-.35.686-.548 1.13-.528h11.16c.47-.021.931.147 1.273.464.316.308.477.746.477 1.3.013.432-.08.861-.27 1.251-.184.34-.413.654-.683.934l-7.546 8.213h7.15c.43-.01.84.179 1.102.51.28.371.422.824.401 1.283.02.48-.098.954-.34 1.37-.245.382-.678.576-1.287.576l-11.568-.002zm17.53.21c-1.986 0-2.4-.992-2.4-1.824V8.417c0-.634.197-1.148.587-1.526.39-.378 1.01-.57 1.848-.57.705 0 1.263.155 1.66.465.398.31.618.808.618 1.45v12.26c0 .667-.216 1.157-.642 1.46-.426.302-.973.428-1.67.428zm0-17.367c-.774 0-1.408-.22-1.888-.655-.48-.435-.73-1.035-.73-1.772A2.303 2.303 0 0153.25.85c.475-.454 1.113-.686 1.891-.686a3.006 3.006 0 011.778.584c.558.4.841 1.022.841 1.848 0 .737-.246 1.334-.73 1.773-.485.44-1.12.652-1.889.652v-.004zm7.491 22.021c-1.857 0-2.25-1.009-2.25-1.855V8.006a1.926 1.926 0 01.588-1.44c.388-.377 1.01-.57 1.848-.57a3.338 3.338 0 011.5.339c.493.246.75.73.75 1.423a5.587 5.587 0 011.373-1.159 5.818 5.818 0 013.1-.84 6.88 6.88 0 013.035.639 6.162 6.162 0 012.204 1.774 7.711 7.711 0 011.305 2.677c.292 1.09.435 2.214.426 3.34a11.288 11.288 0 01-.49 3.392 7.905 7.905 0 01-1.43 2.692 6.577 6.577 0 01-2.32 1.773 7.382 7.382 0 01-3.125.638 6.575 6.575 0 01-2.13-.292 5.945 5.945 0 01-1.396-.673 3.826 3.826 0 01-.645-.536v3.912c0 .68-.191 1.182-.567 1.492-.377.309-.956.45-1.776.45zM68.34 9.649a3.048 3.048 0 00-1.468.337 3.16 3.16 0 00-1.065.954c-.31.444-.536.938-.668 1.459a7.236 7.236 0 00-.226 1.852c0 1.421.3 2.561.9 3.389.6.827 1.414 1.214 2.533 1.214 1.12 0 1.934-.414 2.5-1.268.565-.854.866-1.99.866-3.335a7.239 7.239 0 00-.234-1.846 4.672 4.672 0 00-.654-1.46 3.031 3.031 0 00-1.05-.95 2.977 2.977 0 00-1.434-.346z" fill="#272560"/></g><defs><clipPath id="clip0_2_241"><path fill="#fff" d="M0 0h77v27H0z"/></clipPath></defs></svg>